<?xml version="1.0" encoding="UTF-8" standalone="no"?>
<!DOCTYPE svg PUBLIC "-//W3C//DTD SVG 1.0//EN" "http://www.w3.org/TR/2001/PR-SVG-20010719/DTD/svg10.dtd">
<svg width="4cm" height="15cm" viewBox="9 9 61 283" xmlns="http://www.w3.org/2000/svg" xmlns:xlink="http://www.w3.org/1999/xlink">
  <g>
    <rect style="fill: none; fill-opacity:0; stroke-width: 1; stroke: #000000" x="10" y="60" width="60" height="30"/>
    <line style="fill: none; fill-opacity:0; stroke-width: 1; stroke: #000000" x1="10" y1="70" x2="20" y2="60"/>
    <line style="fill: none; fill-opacity:0; stroke-width: 1; stroke: #000000" x1="60" y1="60" x2="70" y2="70"/>
    <line style="fill: none; fill-opacity:0; stroke-width: 1; stroke: #000000" x1="10" y1="80" x2="20" y2="90"/>
    <line style="fill: none; fill-opacity:0; stroke-width: 1; stroke: #000000" x1="60" y1="90" x2="70" y2="80"/>
    <text font-size="5.64444" style="fill: #000000;text-anchor:middle;font-family:sans-serif;font-style:normal;font-weight:normal" x="40" y="73.5889">
      <tspan x="40" y="73.5889">Приготовление </tspan>
      <tspan x="40" y="80.6444">молочной смеси</tspan>
    </text>
  </g>
  <polygon style="fill: none; fill-opacity:0; stroke-width: 1; stroke: #000000" points="20,10 60,10 40,40 "/>
  <g>
    <rect style="fill: none; fill-opacity:0; stroke-width: 1; stroke: #000000" x="10" y="110" width="60" height="30"/>
    <line style="fill: none; fill-opacity:0; stroke-width: 1; stroke: #000000" x1="10" y1="120" x2="20" y2="110"/>
    <line style="fill: none; fill-opacity:0; stroke-width: 1; stroke: #000000" x1="60" y1="110" x2="70" y2="120"/>
    <line style="fill: none; fill-opacity:0; stroke-width: 1; stroke: #000000" x1="10" y1="130" x2="20" y2="140"/>
    <line style="fill: none; fill-opacity:0; stroke-width: 1; stroke: #000000" x1="60" y1="140" x2="70" y2="130"/>
    <text font-size="5.64444" style="fill: #000000;text-anchor:middle;font-family:sans-serif;font-style:normal;font-weight:normal" x="40" y="123.589">
      <tspan x="40" y="123.589">Приготовление</tspan>
      <tspan x="40" y="130.644">творожной массы</tspan>
    </text>
  </g>
  <g>
    <rect style="fill: none; fill-opacity:0; stroke-width: 1; stroke: #000000" x="10" y="160" width="60" height="30"/>
    <line style="fill: none; fill-opacity:0; stroke-width: 1; stroke: #000000" x1="10" y1="170" x2="20" y2="160"/>
    <line style="fill: none; fill-opacity:0; stroke-width: 1; stroke: #000000" x1="60" y1="160" x2="70" y2="170"/>
    <line style="fill: none; fill-opacity:0; stroke-width: 1; stroke: #000000" x1="10" y1="180" x2="20" y2="190"/>
    <line style="fill: none; fill-opacity:0; stroke-width: 1; stroke: #000000" x1="60" y1="190" x2="70" y2="180"/>
    <text font-size="5.64444" style="fill: #000000;text-anchor:middle;font-family:sans-serif;font-style:normal;font-weight:normal" x="40" y="173.589">
      <tspan x="40" y="173.589">Формовка </tspan>
      <tspan x="40" y="180.644">творожной массы</tspan>
    </text>
  </g>
  <line style="fill: none; fill-opacity:0; stroke-width: 1; stroke: #000000" x1="40" y1="40" x2="40" y2="59.5166"/>
  <line style="fill: none; fill-opacity:0; stroke-width: 1; stroke: #000000" x1="40" y1="90" x2="40" y2="110"/>
  <line style="fill: none; fill-opacity:0; stroke-width: 1; stroke: #000000" x1="40" y1="140" x2="40" y2="160"/>
  <line style="fill: none; fill-opacity:0; stroke-width: 1; stroke: #000000" x1="40" y1="190.483" x2="40" y2="210"/>
  <g>
    <rect style="fill: none; fill-opacity:0; stroke-width: 1; stroke: #000000" x="10" y="210" width="60" height="30"/>
    <line style="fill: none; fill-opacity:0; stroke-width: 1; stroke: #000000" x1="10" y1="220" x2="20" y2="210"/>
    <line style="fill: none; fill-opacity:0; stroke-width: 1; stroke: #000000" x1="60" y1="210" x2="70" y2="220"/>
    <line style="fill: none; fill-opacity:0; stroke-width: 1; stroke: #000000" x1="10" y1="230" x2="20" y2="240"/>
    <line style="fill: none; fill-opacity:0; stroke-width: 1; stroke: #000000" x1="60" y1="240" x2="70" y2="230"/>
    <text font-size="5.64444" style="fill: #000000;text-anchor:middle;font-family:sans-serif;font-style:normal;font-weight:normal" x="40" y="223.589">
      <tspan x="40" y="223.589">Фасовка </tspan>
      <tspan x="40" y="230.644">творожной массы</tspan>
    </text>
  </g>
  <line style="fill: none; fill-opacity:0; stroke-width: 1; stroke: #000000" x1="40" y1="240" x2="40" y2="260"/>
  <g>
    <line style="fill: none; fill-opacity:0; stroke-width: 1; stroke: #ffffff" x1="20" y1="292" x2="60" y2="292"/>
    <polygon style="fill: none; fill-opacity:0; stroke-width: 1; stroke: #000000" points="20,290 40,260 60,290 "/>
  </g>
</svg>
