<?xml version="1.0" encoding="UTF-8" standalone="no"?>
<!DOCTYPE svg PUBLIC "-//W3C//DTD SVG 1.0//EN" "http://www.w3.org/TR/2001/PR-SVG-20010719/DTD/svg10.dtd">
<svg width="17cm" height="17cm" viewBox="8 9 334 333" xmlns="http://www.w3.org/2000/svg" xmlns:xlink="http://www.w3.org/1999/xlink">
  <g>
    <rect style="fill: none; fill-opacity:0; stroke-width: 1; stroke: #000000" x="130" y="60" width="60" height="30"/>
    <line style="fill: none; fill-opacity:0; stroke-width: 1; stroke: #000000" x1="130" y1="70" x2="140" y2="60"/>
    <text font-size="5.64444" style="fill: #000000;text-anchor:middle;font-family:sans-serif;font-style:normal;font-weight:normal" x="160" y="73.5889">
      <tspan x="160" y="73.5889">Проверка сигнала</tspan>
      <tspan x="160" y="80.6444">"Сыворотка ОК"</tspan>
    </text>
  </g>
  <g>
    <rect style="fill: none; fill-opacity:0; stroke-width: 1; stroke: #000000" x="130" y="130" width="60" height="30"/>
    <line style="fill: none; fill-opacity:0; stroke-width: 1; stroke: #000000" x1="130" y1="140" x2="140" y2="130"/>
    <text font-size="5.64444" style="fill: #000000;text-anchor:middle;font-family:sans-serif;font-style:normal;font-weight:normal" x="160" y="143.589">
      <tspan x="160" y="143.589">Ожидание</tspan>
      <tspan x="160" y="150.644">нажатия кнопок</tspan>
    </text>
  </g>
  <g>
    <rect style="fill: none; fill-opacity:0; stroke-width: 1; stroke: #000000" x="9.15665" y="232" width="60" height="30"/>
    <line style="fill: none; fill-opacity:0; stroke-width: 1; stroke: #000000" x1="9.15665" y1="242" x2="19.1567" y2="232"/>
    <text font-size="5.64444" style="fill: #000000;text-anchor:middle;font-family:sans-serif;font-style:normal;font-weight:normal" x="39.1567" y="249.117">
      <tspan x="39.1567" y="249.117">Откачка верх</tspan>
    </text>
  </g>
  <g>
    <line style="fill: none; fill-opacity:0; stroke-width: 1; stroke: #000000" x1="29" y1="211" x2="49" y2="211"/>
    <line style="fill: none; fill-opacity:0; stroke-width: 1; stroke: #000000" x1="29" y1="214.224" x2="49" y2="214.224"/>
    <text font-size="5.64444" style="fill: #000000;text-anchor:start;font-family:sans-serif;font-style:normal;font-weight:normal" x="53" y="211.738">
      <tspan x="53" y="211.738">Нажата кнопка</tspan>
      <tspan x="53" y="218.794">"Верх"?</tspan>
    </text>
  </g>
  <polygon style="fill: none; fill-opacity:0; stroke-width: 1; stroke: #000000" points="140,10 180,10 160,40 "/>
  <g>
    <line style="fill: none; fill-opacity:0; stroke-width: 1; stroke: #ffffff" x1="140" y1="342" x2="180" y2="342"/>
    <polygon style="fill: none; fill-opacity:0; stroke-width: 1; stroke: #000000" points="140,340 160,310 180,340 "/>
  </g>
  <g>
    <line style="fill: none; fill-opacity:0; stroke-width: 1; stroke: #000000" x1="29" y1="281" x2="49" y2="281"/>
    <line style="fill: none; fill-opacity:0; stroke-width: 1; stroke: #000000" x1="29" y1="284.224" x2="49" y2="284.224"/>
    <text font-size="5.64444" style="fill: #000000;text-anchor:start;font-family:sans-serif;font-style:normal;font-weight:normal" x="53" y="281.738">
      <tspan x="53" y="281.738">Требуемый объем</tspan>
      <tspan x="53" y="288.794">достигнут?</tspan>
    </text>
  </g>
  <g>
    <line style="fill: none; fill-opacity:0; stroke-width: 1; stroke: #000000" x1="150" y1="110" x2="170" y2="110"/>
    <line style="fill: none; fill-opacity:0; stroke-width: 1; stroke: #000000" x1="150" y1="113.224" x2="170" y2="113.224"/>
    <text font-size="5.64444" style="fill: #000000;text-anchor:start;font-family:sans-serif;font-style:normal;font-weight:normal" x="174" y="114.266">
      <tspan x="174" y="114.266">Сигнал ОК?</tspan>
    </text>
  </g>
  <line style="fill: none; fill-opacity:0; stroke-width: 1; stroke: #000000" x1="160" y1="90" x2="160" y2="110"/>
  <line style="fill: none; fill-opacity:0; stroke-width: 1; stroke: #000000" x1="160" y1="113.224" x2="160" y2="130"/>
  <line style="fill: none; fill-opacity:0; stroke-width: 1; stroke: #000000" x1="39" y1="214.224" x2="39.1567" y2="232"/>
  <line style="fill: none; fill-opacity:0; stroke-width: 1; stroke: #000000" x1="160" y1="40" x2="160" y2="60"/>
  <line style="fill: none; fill-opacity:0; stroke-width: 1; stroke: #000000" x1="39.1567" y1="262" x2="39" y2="281"/>
  <g>
    <rect style="fill: none; fill-opacity:0; stroke-width: 1; stroke: #000000" x="130" y="230" width="60" height="30"/>
    <line style="fill: none; fill-opacity:0; stroke-width: 1; stroke: #000000" x1="130" y1="240" x2="140" y2="230"/>
    <text font-size="5.64444" style="fill: #000000;text-anchor:middle;font-family:sans-serif;font-style:normal;font-weight:normal" x="160" y="247.117">
      <tspan x="160" y="247.117">Откачка низ</tspan>
    </text>
  </g>
  <g>
    <rect style="fill: none; fill-opacity:0; stroke-width: 1; stroke: #000000" x="250" y="230" width="60" height="30"/>
    <line style="fill: none; fill-opacity:0; stroke-width: 1; stroke: #000000" x1="250" y1="240" x2="260" y2="230"/>
    <text font-size="5.64444" style="fill: #000000;text-anchor:middle;font-family:sans-serif;font-style:normal;font-weight:normal" x="280" y="247.117">
      <tspan x="280" y="247.117">Откачка верх+низ</tspan>
    </text>
  </g>
  <g>
    <line style="fill: none; fill-opacity:0; stroke-width: 1; stroke: #000000" x1="150" y1="280" x2="170" y2="280"/>
    <line style="fill: none; fill-opacity:0; stroke-width: 1; stroke: #000000" x1="150" y1="283.224" x2="170" y2="283.224"/>
    <text font-size="5.64444" style="fill: #000000;text-anchor:start;font-family:sans-serif;font-style:normal;font-weight:normal" x="174" y="280.738">
      <tspan x="174" y="280.738">Требуемый объем</tspan>
      <tspan x="174" y="287.794">достигнут?</tspan>
    </text>
  </g>
  <line style="fill: none; fill-opacity:0; stroke-width: 1; stroke: #000000" x1="160" y1="260" x2="160" y2="280"/>
  <g>
    <line style="fill: none; fill-opacity:0; stroke-width: 1; stroke: #000000" x1="270" y1="280" x2="290" y2="280"/>
    <line style="fill: none; fill-opacity:0; stroke-width: 1; stroke: #000000" x1="270" y1="283.224" x2="290" y2="283.224"/>
    <text font-size="5.64444" style="fill: #000000;text-anchor:start;font-family:sans-serif;font-style:normal;font-weight:normal" x="294" y="280.738">
      <tspan x="294" y="280.738">Требуемый объем</tspan>
      <tspan x="294" y="287.794">достигнут?</tspan>
    </text>
  </g>
  <line style="fill: none; fill-opacity:0; stroke-width: 1; stroke: #000000" x1="280" y1="260" x2="280" y2="280"/>
  <polyline style="fill: none; fill-opacity:0; stroke-width: 1; stroke: #000000" points="39,284.224 39,298 160,298 160,310 "/>
  <polyline style="fill: none; fill-opacity:0; stroke-width: 1; stroke: #000000" points="280,283.224 280,298 160,298 160,310 "/>
  <line style="fill: none; fill-opacity:0; stroke-width: 1; stroke: #000000" x1="160" y1="283.224" x2="160" y2="310"/>
  <g>
    <line style="fill: none; fill-opacity:0; stroke-width: 1; stroke: #000000" x1="150" y1="210" x2="170" y2="210"/>
    <line style="fill: none; fill-opacity:0; stroke-width: 1; stroke: #000000" x1="150" y1="213.224" x2="170" y2="213.224"/>
    <text font-size="5.64444" style="fill: #000000;text-anchor:start;font-family:sans-serif;font-style:normal;font-weight:normal" x="174" y="210.738">
      <tspan x="174" y="210.738">Нажата кнопка</tspan>
      <tspan x="174" y="217.794">"Низ"?</tspan>
    </text>
  </g>
  <line style="fill: none; fill-opacity:0; stroke-width: 1; stroke: #000000" x1="160" y1="213.224" x2="160" y2="230"/>
  <g>
    <line style="fill: none; fill-opacity:0; stroke-width: 1; stroke: #000000" x1="270" y1="210" x2="290" y2="210"/>
    <line style="fill: none; fill-opacity:0; stroke-width: 1; stroke: #000000" x1="270" y1="213.224" x2="290" y2="213.224"/>
    <text font-size="5.64444" style="fill: #000000;text-anchor:start;font-family:sans-serif;font-style:normal;font-weight:normal" x="294" y="210.738">
      <tspan x="294" y="210.738">Нажата кнопка</tspan>
      <tspan x="294" y="217.794">"Верх+Низ"?</tspan>
    </text>
  </g>
  <line style="fill: none; fill-opacity:0; stroke-width: 1; stroke: #000000" x1="280" y1="213.224" x2="280" y2="230"/>
  <polyline style="fill: none; fill-opacity:0; stroke-width: 1; stroke: #000000" points="160,160 160,185 160,185 160,210 "/>
  <polyline style="fill: none; fill-opacity:0; stroke-width: 1; stroke: #000000" points="160,160 160,185 280,185 280,210 "/>
  <polyline style="fill: none; fill-opacity:0; stroke-width: 1; stroke: #000000" points="160,160 160,185.5 39,185.5 39,211 "/>
</svg>
