<?xml version="1.0" encoding="UTF-8" standalone="no"?>
<!DOCTYPE svg PUBLIC "-//W3C//DTD SVG 1.1//EN" "http://www.w3.org/Graphics/SVG/1.1/DTD/svg11.dtd">
<!-- Создано Microsoft Visio, экспорт SVG sync.svg Страница-1 -->
<svg xmlns="http://www.w3.org/2000/svg" xmlns:xlink="http://www.w3.org/1999/xlink" xmlns:ev="http://www.w3.org/2001/xml-events"
		xmlns:v="http://schemas.microsoft.com/visio/2003/SVGExtensions/" width="6.26999in" height="8.47in"
		viewBox="0 0 451.439 609.84" xml:space="preserve" color-interpolation-filters="sRGB" class="st11">
	<v:documentProperties v:langID="1049">
		<v:userDefs>
			<v:ud v:nameU="msvSubprocessMaster" v:prompt="" v:val="VT4(Rectangle)"/>
			<v:ud v:nameU="msvNoAutoConnect" v:val="VT0(1):26"/>
		</v:userDefs>
	</v:documentProperties>

	<style type="text/css">
	<![CDATA[
		.st1 {fill:none;stroke:#000000;stroke-width:1.5}
		.st2 {fill:#000000;font-family:Calibri;font-size:1.24999em}
		.st3 {fill:none}
		.st4 {stroke:#000000;stroke-linecap:round;stroke-linejoin:round;stroke-width:1.5}
		.st5 {fill:#ffffff;stroke:none;stroke-linecap:butt;stroke-width:7.2}
		.st6 {fill:#000000;font-family:Calibri;font-size:1.00001em}
		.st7 {stroke:#000000;stroke-dasharray:5.25,3.75;stroke-linecap:round;stroke-linejoin:round;stroke-width:0.75}
		.st8 {font-size:1em}
		.st9 {marker-end:url(#mrkr4-75);stroke:#000000;stroke-dasharray:5.25,3.75;stroke-linecap:round;stroke-linejoin:round;stroke-width:0.75}
		.st10 {fill:#000000;fill-opacity:1;stroke:#000000;stroke-opacity:1;stroke-width:0.22935779816514}
		.st11 {fill:none;fill-rule:evenodd;font-size:12px;overflow:visible;stroke-linecap:square;stroke-miterlimit:3}
	]]>
	</style>

	<defs id="Markers">
		<g id="lend4">
			<path d="M 2 1 L 0 0 L 2 -1 L 2 1 " style="stroke:none"/>
		</g>
		<marker id="mrkr4-75" class="st10" v:arrowType="4" v:arrowSize="2" v:setback="8.72" refX="-8.72" orient="auto"
				markerUnits="strokeWidth" overflow="visible">
			<use xlink:href="#lend4" transform="scale(-4.36,-4.36) "/>
		</marker>
	</defs>
	<g v:mID="0" v:index="1" v:groupContext="foregroundPage">
		<v:userDefs>
			<v:ud v:nameU="msvThemeOrder" v:val="VT0(0):26"/>
		</v:userDefs>
		<title>Страница-1</title>
		<v:pageProperties v:drawingScale="0.0393701" v:pageScale="0.0393701" v:drawingUnits="24" v:shadowOffsetX="8.50391"
				v:shadowOffsetY="-8.50391"/>
		<v:layer v:name="Соединительная линия" v:index="0"/>
		<g id="shape23-1" v:mID="23" v:groupContext="shape" transform="translate(20.9173,-468.754)">
			<title>Прямоугольник</title>
			<desc>Идентификатор</desc>
			<v:userDefs>
				<v:ud v:nameU="visVersion" v:val="VT0(15):26"/>
			</v:userDefs>
			<v:textBlock v:margins="rect(3.99998,3.99998,3.99998,3.99998)" v:tabSpace="42.5195"/>
			<v:textRect cx="56.6918" cy="567.32" width="113.39" height="85.0391"/>
			<rect x="0" y="524.801" width="113.386" height="85.0391" class="st1"/>
			<text x="11.34" y="571.82" class="st2" v:langID="1049"><v:paragraph v:horizAlign="1"/><v:tabList/>Добавление А</text>		</g>
		<g id="shape24-4" v:mID="24" v:groupContext="shape" transform="translate(480.485,487.269) rotate(135)">
			<title>Лист.70</title>
			<path d="M0 609.84 L40.09 609.84 L0 609.84 Z" class="st3"/>
			<path d="M0 609.84 L40.09 609.84" class="st4"/>
		</g>
		<g id="shape25-7" v:mID="25" v:groupContext="shape" v:layerMember="0" transform="translate(76.4167,-553.79)">
			<title>Динамическая соединительная линия.5</title>
			<v:userDefs/>
			<path d="M0 572.54 L1.19 572.54 L1.19 609.84 L0 572.54 Z" class="st3"/>
			<path d="M0 572.54 L1.19 572.54 L1.19 609.84" class="st4"/>
		</g>
		<g id="shape26-10" v:mID="26" v:groupContext="shape" v:layerMember="0" transform="translate(77.6067,-414.183)">
			<title>Динамическая соединительная линия</title>
			<v:userDefs/>
			<path d="M0 555.27 L0 609.84 L0 555.27 Z" class="st3"/>
			<path d="M0 555.27 L0 609.84" class="st4"/>
		</g>
		<g id="shape28-13" v:mID="28" v:groupContext="shape" transform="translate(318.553,-468.754)">
			<title>Прямоугольник.28</title>
			<desc>Идентификатор</desc>
			<v:userDefs>
				<v:ud v:nameU="visVersion" v:val="VT0(15):26"/>
			</v:userDefs>
			<v:textBlock v:margins="rect(3.99998,3.99998,3.99998,3.99998)" v:tabSpace="42.5195"/>
			<v:textRect cx="56.6918" cy="567.32" width="113.39" height="85.0391"/>
			<rect x="0" y="524.801" width="113.386" height="85.0391" class="st1"/>
			<text x="34.57" y="571.82" class="st2" v:langID="1049"><v:paragraph v:horizAlign="1"/><v:tabList/>Нагрев</text>		</g>
		<g id="shape29-16" v:mID="29" v:groupContext="shape" transform="translate(778.121,487.269) rotate(135)">
			<title>Лист.29</title>
			<path d="M0 609.84 L40.09 609.84 L0 609.84 Z" class="st3"/>
			<path d="M0 609.84 L40.09 609.84" class="st4"/>
		</g>
		<g id="shape30-19" v:mID="30" v:groupContext="shape" v:layerMember="0" transform="translate(374.053,-553.79)">
			<title>Динамическая соединительная линия.5</title>
			<v:userDefs/>
			<path d="M0 572.54 L1.19 572.54 L1.19 609.84 L0 572.54 Z" class="st3"/>
			<path d="M0 572.54 L1.19 572.54 L1.19 609.84" class="st4"/>
		</g>
		<g id="shape31-22" v:mID="31" v:groupContext="shape" v:layerMember="0" transform="translate(375.243,-414.183)">
			<title>Динамическая соединительная линия</title>
			<v:userDefs/>
			<path d="M0 555.27 L0 609.84 L0 555.27 Z" class="st3"/>
			<path d="M0 555.27 L0 609.84" class="st4"/>
		</g>
		<g id="shape32-25" v:mID="32" v:groupContext="shape" transform="translate(134.301,-492.715)">
			<title>Лист.32</title>
			<desc>S01</desc>
			<v:textBlock v:margins="rect(4,4,4,4)"/>
			<v:textRect cx="24.8031" cy="592.832" width="49.61" height="34.0157"/>
			<path d="M0 575.82 L49.61 575.82 L49.61 609.84 L0 609.84" class="st4"/>
			<rect v:rectContext="textBkgnd" x="15.9642" y="585.632" width="17.6778" height="14.4001" class="st5"/>
			<text x="15.96" y="596.43" class="st6" v:langID="1033"><v:paragraph v:horizAlign="1"/><v:tabList/>S01</text>		</g>
		<g id="shape33-30" v:mID="33" v:groupContext="shape" transform="translate(317.136,-492.715) scale(-1,1)">
			<title>Лист.33</title>
			<desc>S01</desc>
			<v:textBlock v:margins="rect(4,4,4,4)"/>
			<v:textRect cx="24.8031" cy="592.832" width="49.61" height="34.0157"/>
			<path d="M0 575.82 L49.61 575.82 L49.61 609.84 L0 609.84" class="st4"/>
			<rect v:rectContext="textBkgnd" x="15.9642" y="585.632" width="17.6778" height="14.4001" class="st5"/>
			<text x="-33.64" y="596.43" transform="scale(-1,1)" class="st6" v:langID="1033"><v:paragraph v:horizAlign="1"/><v:tabList/>S01</text>		</g>
		<g id="shape34-35" v:mID="34" v:groupContext="shape" v:layerMember="0" transform="translate(183.908,-502.636)">
			<title>Динамическая соединительная линия</title>
			<path d="M0 602.75 L83.62 602.75" class="st7"/>
		</g>
		<g id="shape35-38" v:mID="35" v:groupContext="shape" transform="translate(20.9173,-274.001)">
			<title>Прямоугольник.35</title>
			<desc>Идентификатор</desc>
			<v:userDefs>
				<v:ud v:nameU="visVersion" v:val="VT0(15):26"/>
			</v:userDefs>
			<v:textBlock v:margins="rect(3.99998,3.99998,3.99998,3.99998)" v:tabSpace="42.5195"/>
			<v:textRect cx="56.6918" cy="567.32" width="113.39" height="85.0391"/>
			<rect x="0" y="524.801" width="113.386" height="85.0391" class="st1"/>
			<text x="27.9" y="562.82" class="st2" v:langID="1049"><v:paragraph v:horizAlign="1"/><v:tabList/>Подача в <tspan
						x="31.15" dy="1.2em" class="st8">реактор</tspan></text>		</g>
		<g id="shape36-42" v:mID="36" v:groupContext="shape" transform="translate(480.485,682.021) rotate(135)">
			<title>Лист.36</title>
			<path d="M0 609.84 L40.09 609.84 L0 609.84 Z" class="st3"/>
			<path d="M0 609.84 L40.09 609.84" class="st4"/>
		</g>
		<g id="shape37-45" v:mID="37" v:groupContext="shape" v:layerMember="0" transform="translate(76.4167,-359.037)">
			<title>Динамическая соединительная линия.5</title>
			<v:userDefs/>
			<path d="M0 572.54 L1.19 572.54 L1.19 609.84 L0 572.54 Z" class="st3"/>
			<path d="M0 572.54 L1.19 572.54 L1.19 609.84" class="st4"/>
		</g>
		<g id="shape38-48" v:mID="38" v:groupContext="shape" v:layerMember="0" transform="translate(77.6067,-219.431)">
			<title>Динамическая соединительная линия</title>
			<v:userDefs/>
			<path d="M0 555.27 L0 609.84 L0 555.27 Z" class="st3"/>
			<path d="M0 555.27 L0 609.84" class="st4"/>
		</g>
		<g id="shape39-51" v:mID="39" v:groupContext="shape" transform="translate(318.553,-274.001)">
			<title>Прямоугольник.39</title>
			<desc>Идентификатор</desc>
			<v:userDefs>
				<v:ud v:nameU="visVersion" v:val="VT0(15):26"/>
			</v:userDefs>
			<v:textBlock v:margins="rect(3.99998,3.99998,3.99998,3.99998)" v:tabSpace="42.5195"/>
			<v:textRect cx="56.6918" cy="567.32" width="113.39" height="85.0391"/>
			<rect x="0" y="524.801" width="113.386" height="85.0391" class="st1"/>
			<text x="23.29" y="562.82" class="st2" v:langID="1049"><v:paragraph v:horizAlign="1"/><v:tabList/>Приемка с <tspan
						x="24.54" dy="1.2em" class="st8">установки</tspan></text>		</g>
		<g id="shape40-55" v:mID="40" v:groupContext="shape" transform="translate(778.121,682.021) rotate(135)">
			<title>Лист.40</title>
			<path d="M0 609.84 L40.09 609.84 L0 609.84 Z" class="st3"/>
			<path d="M0 609.84 L40.09 609.84" class="st4"/>
		</g>
		<g id="shape41-58" v:mID="41" v:groupContext="shape" v:layerMember="0" transform="translate(374.053,-359.037)">
			<title>Динамическая соединительная линия.5</title>
			<v:userDefs/>
			<path d="M0 572.54 L1.19 572.54 L1.19 609.84 L0 572.54 Z" class="st3"/>
			<path d="M0 572.54 L1.19 572.54 L1.19 609.84" class="st4"/>
		</g>
		<g id="shape42-61" v:mID="42" v:groupContext="shape" v:layerMember="0" transform="translate(375.243,-219.431)">
			<title>Динамическая соединительная линия</title>
			<v:userDefs/>
			<path d="M0 555.27 L0 609.84 L0 555.27 Z" class="st3"/>
			<path d="M0 555.27 L0 609.84" class="st4"/>
		</g>
		<g id="shape43-64" v:mID="43" v:groupContext="shape" transform="translate(134.301,-297.963)">
			<title>Лист.43</title>
			<path d="M0 575.82 L49.61 575.82 L49.61 609.84 L0 609.84" class="st4"/>
		</g>
		<g id="shape44-67" v:mID="44" v:groupContext="shape" transform="translate(317.136,-297.963) scale(-1,1)">
			<title>Лист.44</title>
			<path d="M0 575.82 L49.61 575.82 L49.61 609.84 L0 609.84" class="st4"/>
		</g>
		<g id="shape45-70" v:mID="45" v:groupContext="shape" v:layerMember="0" transform="translate(183.908,-307.884)">
			<title>Динамическая соединительная линия.45</title>
			<path d="M0 602.75 L77.08 602.75" class="st9"/>
		</g>
		<g id="shape46-76" v:mID="46" v:groupContext="shape" transform="translate(19.5,-73.3206)">
			<title>Прямоугольник.46</title>
			<desc>Идентификатор</desc>
			<v:userDefs>
				<v:ud v:nameU="visVersion" v:val="VT0(15):26"/>
			</v:userDefs>
			<v:textBlock v:margins="rect(3.99998,3.99998,3.99998,3.99998)" v:tabSpace="42.5195"/>
			<v:textRect cx="56.6918" cy="567.32" width="113.39" height="85.0391"/>
			<rect x="0" y="524.801" width="113.386" height="85.0391" class="st1"/>
			<text x="11.34" y="571.82" class="st2" v:langID="1049"><v:paragraph v:horizAlign="1"/><v:tabList/>Добавление А</text>		</g>
		<g id="shape47-79" v:mID="47" v:groupContext="shape" transform="translate(479.068,882.702) rotate(135)">
			<title>Лист.47</title>
			<path d="M0 609.84 L40.09 609.84 L0 609.84 Z" class="st3"/>
			<path d="M0 609.84 L40.09 609.84" class="st4"/>
		</g>
		<g id="shape48-82" v:mID="48" v:groupContext="shape" v:layerMember="0" transform="translate(74.9994,-158.357)">
			<title>Динамическая соединительная линия.5</title>
			<v:userDefs/>
			<path d="M0 572.54 L1.19 572.54 L1.19 609.84 L0 572.54 Z" class="st3"/>
			<path d="M0 572.54 L1.19 572.54 L1.19 609.84" class="st4"/>
		</g>
		<g id="shape49-85" v:mID="49" v:groupContext="shape" v:layerMember="0" transform="translate(76.1894,-18.75)">
			<title>Динамическая соединительная линия</title>
			<v:userDefs/>
			<path d="M0 555.27 L0 609.84 L0 555.27 Z" class="st3"/>
			<path d="M0 555.27 L0 609.84" class="st4"/>
		</g>
		<g id="shape50-88" v:mID="50" v:groupContext="shape" transform="translate(317.136,-73.3206)">
			<title>Прямоугольник.50</title>
			<desc>Идентификатор</desc>
			<v:userDefs>
				<v:ud v:nameU="visVersion" v:val="VT0(15):26"/>
			</v:userDefs>
			<v:textBlock v:margins="rect(3.99998,3.99998,3.99998,3.99998)" v:tabSpace="42.5195"/>
			<v:textRect cx="56.6918" cy="567.32" width="113.39" height="85.0391"/>
			<rect x="0" y="524.801" width="113.386" height="85.0391" class="st1"/>
			<text x="34.57" y="571.82" class="st2" v:langID="1049"><v:paragraph v:horizAlign="1"/><v:tabList/>Нагрев</text>		</g>
		<g id="shape51-91" v:mID="51" v:groupContext="shape" transform="translate(776.704,882.702) rotate(135)">
			<title>Лист.51</title>
			<path d="M0 609.84 L40.09 609.84 L0 609.84 Z" class="st3"/>
			<path d="M0 609.84 L40.09 609.84" class="st4"/>
		</g>
		<g id="shape52-94" v:mID="52" v:groupContext="shape" v:layerMember="0" transform="translate(372.635,-158.357)">
			<title>Динамическая соединительная линия.5</title>
			<v:userDefs/>
			<path d="M0 572.54 L1.19 572.54 L1.19 609.84 L0 572.54 Z" class="st3"/>
			<path d="M0 572.54 L1.19 572.54 L1.19 609.84" class="st4"/>
		</g>
		<g id="shape53-97" v:mID="53" v:groupContext="shape" v:layerMember="0" transform="translate(373.825,-18.75)">
			<title>Динамическая соединительная линия</title>
			<v:userDefs/>
			<path d="M0 555.27 L0 609.84 L0 555.27 Z" class="st3"/>
			<path d="M0 555.27 L0 609.84" class="st4"/>
		</g>
		<g id="shape54-100" v:mID="54" v:groupContext="shape" transform="translate(132.884,-97.282)">
			<title>Лист.54</title>
			<desc>TR2</desc>
			<v:textBlock v:margins="rect(4,4,4,4)"/>
			<v:textRect cx="24.8031" cy="592.832" width="49.61" height="34.0157"/>
			<path d="M0 575.82 L49.61 575.82 L49.61 609.84 L0 609.84" class="st4"/>
			<rect v:rectContext="textBkgnd" x="15.5805" y="585.632" width="18.4455" height="14.4001" class="st5"/>
			<text x="15.58" y="596.43" class="st6" v:langID="1033"><v:paragraph v:horizAlign="1"/><v:tabList/>TR2</text>		</g>
		<g id="shape55-105" v:mID="55" v:groupContext="shape" transform="translate(315.719,-97.282) scale(-1,1)">
			<title>Лист.55</title>
			<desc>TR2</desc>
			<v:textBlock v:margins="rect(4,4,4,4)"/>
			<v:textRect cx="24.8031" cy="592.832" width="49.61" height="34.0157"/>
			<path d="M0 575.82 L49.61 575.82 L49.61 609.84 L0 609.84" class="st4"/>
			<rect v:rectContext="textBkgnd" x="15.5803" y="585.632" width="18.4455" height="14.4001" class="st5"/>
			<text x="-34.03" y="596.43" transform="scale(-1,1)" class="st6" v:langID="1033"><v:paragraph v:horizAlign="1"/><v:tabList/>TR2</text>		</g>
	</g>
</svg>
