<?xml version="1.0" encoding="UTF-8" standalone="no"?>
<!DOCTYPE svg PUBLIC "-//W3C//DTD SVG 1.0//EN" "http://www.w3.org/TR/2001/PR-SVG-20010719/DTD/svg10.dtd">
<svg width="10cm" height="15cm" viewBox="9 9 199 293" xmlns="http://www.w3.org/2000/svg" xmlns:xlink="http://www.w3.org/1999/xlink">
  <g>
    <rect style="fill: none; fill-opacity:0; stroke-width: 1; stroke: #000000" x="10" y="60" width="60" height="30"/>
    <line style="fill: none; fill-opacity:0; stroke-width: 1; stroke: #000000" x1="10" y1="70" x2="20" y2="60"/>
    <text font-size="5.64444" style="fill: #000000;text-anchor:middle;font-family:sans-serif;font-style:normal;font-weight:normal" x="40" y="77.1167">
      <tspan x="40" y="77.1167">Подогрев</tspan>
    </text>
  </g>
  <g>
    <rect style="fill: none; fill-opacity:0; stroke-width: 1; stroke: #000000" x="10" y="130" width="60" height="30"/>
    <line style="fill: none; fill-opacity:0; stroke-width: 1; stroke: #000000" x1="10" y1="140" x2="20" y2="130"/>
    <text font-size="5.64444" style="fill: #000000;text-anchor:middle;font-family:sans-serif;font-style:normal;font-weight:normal" x="40" y="143.589">
      <tspan x="40" y="143.589">Перемешивание</tspan>
      <tspan x="40" y="150.644">влево</tspan>
    </text>
  </g>
  <g>
    <rect style="fill: none; fill-opacity:0; stroke-width: 1; stroke: #000000" x="10" y="200" width="60" height="30"/>
    <line style="fill: none; fill-opacity:0; stroke-width: 1; stroke: #000000" x1="10" y1="210" x2="20" y2="200"/>
    <text font-size="5.64444" style="fill: #000000;text-anchor:middle;font-family:sans-serif;font-style:normal;font-weight:normal" x="40" y="213.589">
      <tspan x="40" y="213.589">Проверка</tspan>
      <tspan x="40" y="220.644">температуры</tspan>
    </text>
  </g>
  <g>
    <line style="fill: none; fill-opacity:0; stroke-width: 1; stroke: #000000" x1="30" y1="180" x2="50" y2="180"/>
    <line style="fill: none; fill-opacity:0; stroke-width: 1; stroke: #000000" x1="30" y1="183.224" x2="50" y2="183.224"/>
    <text font-size="5.64444" style="fill: #000000;text-anchor:start;font-family:sans-serif;font-style:normal;font-weight:normal" x="54" y="184.266">
      <tspan x="54" y="184.266">Время вышло?</tspan>
    </text>
  </g>
  <polygon style="fill: none; fill-opacity:0; stroke-width: 1; stroke: #000000" points="20,10 60,10 40,40 "/>
  <g>
    <line style="fill: none; fill-opacity:0; stroke-width: 1; stroke: #ffffff" x1="20" y1="302" x2="60" y2="302"/>
    <polygon style="fill: none; fill-opacity:0; stroke-width: 1; stroke: #000000" points="20,300 40,270 60,300 "/>
  </g>
  <g>
    <line style="fill: none; fill-opacity:0; stroke-width: 1; stroke: #000000" x1="30" y1="250" x2="50" y2="250"/>
    <line style="fill: none; fill-opacity:0; stroke-width: 1; stroke: #000000" x1="30" y1="253.224" x2="50" y2="253.224"/>
    <text font-size="5.64444" style="fill: #000000;text-anchor:start;font-family:sans-serif;font-style:normal;font-weight:normal" x="54" y="250.738">
      <tspan x="54" y="250.738">Требуемая температура</tspan>
      <tspan x="54" y="257.794">достигнута?</tspan>
    </text>
  </g>
  <g>
    <line style="fill: none; fill-opacity:0; stroke-width: 1; stroke: #000000" x1="30" y1="110" x2="50" y2="110"/>
    <line style="fill: none; fill-opacity:0; stroke-width: 1; stroke: #000000" x1="30" y1="113.224" x2="50" y2="113.224"/>
    <text font-size="5.64444" style="fill: #000000;text-anchor:start;font-family:sans-serif;font-style:normal;font-weight:normal" x="54" y="110.738">
      <tspan x="54" y="110.738">Требуемая температура</tspan>
      <tspan x="54" y="117.794">достигнута?</tspan>
    </text>
  </g>
  <line style="fill: none; fill-opacity:0; stroke-width: 1; stroke: #000000" x1="40" y1="90" x2="40" y2="110"/>
  <line style="fill: none; fill-opacity:0; stroke-width: 1; stroke: #000000" x1="40" y1="113.224" x2="40" y2="130"/>
  <line style="fill: none; fill-opacity:0; stroke-width: 1; stroke: #000000" x1="40" y1="183.224" x2="40" y2="200"/>
  <line style="fill: none; fill-opacity:0; stroke-width: 1; stroke: #000000" x1="40" y1="253.224" x2="40" y2="270"/>
  <line style="fill: none; fill-opacity:0; stroke-width: 1; stroke: #000000" x1="40" y1="40" x2="40" y2="60"/>
  <line style="fill: none; fill-opacity:0; stroke-width: 1; stroke: #000000" x1="40" y1="230" x2="40" y2="250"/>
  <line style="fill: none; fill-opacity:0; stroke-width: 1; stroke: #000000" x1="40" y1="160" x2="40" y2="180"/>
  <g>
    <line style="fill: none; fill-opacity:0; stroke-width: 1; stroke: #000000" x1="120" y1="150" x2="140" y2="150"/>
    <line style="fill: none; fill-opacity:0; stroke-width: 1; stroke: #000000" x1="120" y1="153.224" x2="140" y2="153.224"/>
    <text font-size="5.64444" style="fill: #000000;text-anchor:start;font-family:sans-serif;font-style:normal;font-weight:normal" x="144" y="150.738">
      <tspan x="144" y="150.738">Требуемая температура</tspan>
      <tspan x="144" y="157.794">не достигнута?</tspan>
    </text>
  </g>
  <polyline style="fill: none; fill-opacity:0; stroke-width: 1; stroke: #000000" points="70,215 130,215 130,153.224 "/>
  <g>
    <polyline style="fill: none; fill-opacity:0; stroke-width: 1; stroke: #000000" points="130,150 130,75 76.5,75 "/>
    <polygon style="fill: #000000" points="76.5,72 70.5,75 76.5,78 "/>
    <polygon style="fill: none; fill-opacity:0; stroke-width: 1; stroke: #000000" points="76.5,72 70.5,75 76.5,78 "/>
  </g>
</svg>
