<?xml version="1.0" encoding="UTF-8"?>
<svg xmlns="http://www.w3.org/2000/svg" xmlns:xlink="http://www.w3.org/1999/xlink" width="16pt" height="20pt" viewBox="0 0 16 20" version="1.1">
<g id="surface13891">
<rect x="0" y="0" width="16" height="20" style="fill:rgb(100%,100%,100%);fill-opacity:1;stroke:none;"/>
<path style="fill-rule:evenodd;fill:rgb(100%,100%,100%);fill-opacity:1;stroke-width:0.05;stroke-linecap:butt;stroke-linejoin:miter;stroke:rgb(0%,0%,0%);stroke-opacity:1;stroke-miterlimit:10;" d="M -0.40005 -0.50005 L 0.19995 -0.50005 L 0.19995 0.49995 L -0.40005 0.49995 Z M -0.40005 -0.50005 " transform="matrix(20,0,0,20,10.001,10.001)"/>
<path style="fill-rule:evenodd;fill:rgb(100%,100%,100%);fill-opacity:1;stroke-width:0.05;stroke-linecap:butt;stroke-linejoin:miter;stroke:rgb(0%,0%,0%);stroke-opacity:1;stroke-miterlimit:10;" d="M -0.50005 -0.30005 L -0.40005 -0.30005 L -0.40005 -0.10005 L -0.50005 -0.10005 Z M -0.50005 -0.30005 " transform="matrix(20,0,0,20,10.001,10.001)"/>
<path style="fill-rule:evenodd;fill:rgb(100%,100%,100%);fill-opacity:1;stroke-width:0.05;stroke-linecap:butt;stroke-linejoin:miter;stroke:rgb(0%,0%,0%);stroke-opacity:1;stroke-miterlimit:10;" d="M -0.50005 0.09995 L -0.40005 0.09995 L -0.40005 0.29995 L -0.50005 0.29995 Z M -0.50005 0.09995 " transform="matrix(20,0,0,20,10.001,10.001)"/>
<path style="fill-rule:evenodd;fill:rgb(100%,100%,100%);fill-opacity:1;stroke-width:0.05;stroke-linecap:butt;stroke-linejoin:miter;stroke:rgb(0%,0%,0%);stroke-opacity:1;stroke-miterlimit:10;" d="M 0.19995 -0.30005 L 0.29995 -0.30005 L 0.29995 -0.10005 L 0.19995 -0.10005 Z M 0.19995 -0.30005 " transform="matrix(20,0,0,20,10.001,10.001)"/>
<path style="fill-rule:evenodd;fill:rgb(100%,100%,100%);fill-opacity:1;stroke-width:0.05;stroke-linecap:butt;stroke-linejoin:miter;stroke:rgb(0%,0%,0%);stroke-opacity:1;stroke-miterlimit:10;" d="M 0.19995 0.09995 L 0.29995 0.09995 L 0.29995 0.29995 L 0.19995 0.29995 Z M 0.19995 0.09995 " transform="matrix(20,0,0,20,10.001,10.001)"/>
<path style="fill:none;stroke-width:0.05;stroke-linecap:butt;stroke-linejoin:miter;stroke:rgb(0%,0%,0%);stroke-opacity:1;stroke-miterlimit:10;" d="M -0.40005 -0.20005 L 0.19995 -0.20005 " transform="matrix(20,0,0,20,10.001,10.001)"/>
<path style="fill:none;stroke-width:0.05;stroke-linecap:butt;stroke-linejoin:miter;stroke:rgb(0%,0%,0%);stroke-opacity:1;stroke-miterlimit:10;" d="M -0.40005 0.19995 L 0.19995 0.19995 " transform="matrix(20,0,0,20,10.001,10.001)"/>
</g>
</svg>
