<?xml version="1.0" encoding="UTF-8"?>
<svg xmlns="http://www.w3.org/2000/svg" xmlns:xlink="http://www.w3.org/1999/xlink" width="16pt" height="24pt" viewBox="0 0 16 24" version="1.1">
<g id="surface7851">
<rect x="0" y="0" width="16" height="24" style="fill:rgb(100%,100%,100%);fill-opacity:1;stroke:none;"/>
<path style="fill:none;stroke-width:0.05;stroke-linecap:butt;stroke-linejoin:miter;stroke:rgb(0%,0%,0%);stroke-opacity:1;stroke-miterlimit:10;" d="M 32.049979 19.279986 L 32.349979 19.279986 " transform="matrix(20,0,0,20,-635.999583,-385.599727)"/>
<path style="fill:none;stroke-width:0.05;stroke-linecap:butt;stroke-linejoin:miter;stroke:rgb(0%,0%,0%);stroke-opacity:1;stroke-miterlimit:10;" d="M 32.199979 19.479986 L 32.199979 19.279986 " transform="matrix(20,0,0,20,-635.999583,-385.599727)"/>
<path style="fill-rule:evenodd;fill:rgb(100%,100%,100%);fill-opacity:1;stroke-width:0.05;stroke-linecap:butt;stroke-linejoin:miter;stroke:rgb(0%,0%,0%);stroke-opacity:1;stroke-miterlimit:10;" d="M 31.899979 19.479986 L 32.499979 19.479986 L 32.499979 20.479986 L 31.899979 20.479986 Z M 31.899979 19.479986 " transform="matrix(20,0,0,20,-635.999583,-385.599727)"/>
<path style="fill:none;stroke-width:0.05;stroke-linecap:butt;stroke-linejoin:miter;stroke:rgb(0%,0%,0%);stroke-opacity:1;stroke-miterlimit:10;" d="M 31.899979 19.979986 L 32.499979 19.979986 " transform="matrix(20,0,0,20,-635.999583,-385.599727)"/>
<path style="fill-rule:evenodd;fill:rgb(100%,100%,100%);fill-opacity:1;stroke-width:0.05;stroke-linecap:butt;stroke-linejoin:miter;stroke:rgb(0%,0%,0%);stroke-opacity:1;stroke-miterlimit:10;" d="M 31.799979 19.879986 L 31.899979 19.879986 L 31.899979 20.079986 L 31.799979 20.079986 Z M 31.799979 19.879986 " transform="matrix(20,0,0,20,-635.999583,-385.599727)"/>
<path style="fill-rule:evenodd;fill:rgb(100%,100%,100%);fill-opacity:1;stroke-width:0.05;stroke-linecap:butt;stroke-linejoin:miter;stroke:rgb(0%,0%,0%);stroke-opacity:1;stroke-miterlimit:10;" d="M 32.499979 19.879986 L 32.599979 19.879986 L 32.599979 20.079986 L 32.499979 20.079986 Z M 32.499979 19.879986 " transform="matrix(20,0,0,20,-635.999583,-385.599727)"/>
<path style="fill-rule:evenodd;fill:rgb(100%,100%,100%);fill-opacity:1;stroke-width:0.05;stroke-linecap:butt;stroke-linejoin:miter;stroke:rgb(0%,0%,0%);stroke-opacity:1;stroke-miterlimit:10;" d="M 32.299979 19.979986 C 32.299979 20.113385 32.099979 20.113385 32.099979 19.979986 C 32.099979 19.846783 32.299979 19.846783 32.299979 19.979986 " transform="matrix(20,0,0,20,-635.999583,-385.599727)"/>
</g>
</svg>
