<?xml version="1.0" encoding="UTF-8"?>
<svg xmlns="http://www.w3.org/2000/svg" xmlns:xlink="http://www.w3.org/1999/xlink" width="13pt" height="20pt" viewBox="0 0 13 20" version="1.1">
<g id="surface7435">
<rect x="0" y="0" width="13" height="20" style="fill:rgb(100%,100%,100%);fill-opacity:1;stroke:none;"/>
<path style="fill-rule:evenodd;fill:rgb(100%,100%,100%);fill-opacity:1;stroke-width:0.05;stroke-linecap:butt;stroke-linejoin:miter;stroke:rgb(0%,0%,0%);stroke-opacity:1;stroke-miterlimit:10;" d="M 29.975893 22.646083 L 29.975893 22.979286 L 29.309097 22.646083 L 29.309097 22.979286 Z M 29.975893 22.646083 " transform="matrix(20,0,0,20,-586.181932,-439.585729)"/>
<path style="fill-rule:evenodd;fill:rgb(0%,0%,0%);fill-opacity:1;stroke-width:0.05;stroke-linecap:butt;stroke-linejoin:miter;stroke:rgb(0%,0%,0%);stroke-opacity:1;stroke-miterlimit:10;" d="M 29.600893 22.646083 L 29.642495 22.812685 L 29.684097 22.646083 Z M 29.600893 22.646083 " transform="matrix(20,0,0,20,-586.181932,-439.585729)"/>
<path style="fill-rule:evenodd;fill:rgb(100%,100%,100%);fill-opacity:1;stroke-width:0.05;stroke-linecap:butt;stroke-linejoin:miter;stroke:rgb(0%,0%,0%);stroke-opacity:1;stroke-miterlimit:10;" d="M 29.809097 22.146083 C 29.809097 22.368154 29.475893 22.368154 29.475893 22.146083 C 29.475893 21.923818 29.809097 21.923818 29.809097 22.146083 " transform="matrix(20,0,0,20,-586.181932,-439.585729)"/>
<path style="fill:none;stroke-width:0.05;stroke-linecap:butt;stroke-linejoin:miter;stroke:rgb(0%,0%,0%);stroke-opacity:1;stroke-miterlimit:10;" d="M 29.642495 22.646083 L 29.642495 22.312685 " transform="matrix(20,0,0,20,-586.181932,-439.585729)"/>
</g>
</svg>
