<?xml version="1.0" encoding="UTF-8" standalone="no"?>
<!DOCTYPE svg PUBLIC "-//W3C//DTD SVG 1.0//EN" "http://www.w3.org/TR/2001/PR-SVG-20010719/DTD/svg10.dtd">
<svg width="16cm" height="13cm" viewBox="40 9 302 244" xmlns="http://www.w3.org/2000/svg" xmlns:xlink="http://www.w3.org/1999/xlink">
  <polygon style="fill: none; fill-opacity:0; stroke-width: 1; stroke: #000000" points="185.203,10 225.203,10 205.203,40 "/>
  <g>
    <line style="fill: none; fill-opacity:0; stroke-width: 1; stroke: #000000" x1="250.594" y1="148.5" x2="270.594" y2="148.5"/>
    <line style="fill: none; fill-opacity:0; stroke-width: 1; stroke: #000000" x1="250.594" y1="151.5" x2="270.594" y2="151.5"/>
    <text font-size="5.64444" style="fill: #000000;text-anchor:start;font-family:sans-serif;font-style:normal;font-weight:normal" x="274.594" y="152.617">
      <tspan x="274.594" y="152.617">Время операции вышло?</tspan>
    </text>
  </g>
  <g>
    <line style="fill: none; fill-opacity:0; stroke-width: 1; stroke: #000000" x1="140" y1="148.5" x2="160" y2="148.5"/>
    <line style="fill: none; fill-opacity:0; stroke-width: 1; stroke: #000000" x1="140" y1="151.5" x2="160" y2="151.5"/>
    <text font-size="5.64444" style="fill: #000000;text-anchor:start;font-family:sans-serif;font-style:normal;font-weight:normal" x="164" y="152.617">
      <tspan x="164" y="152.617">Время фазы вышло?</tspan>
    </text>
  </g>
  <g>
    <line style="fill: none; fill-opacity:0; stroke-width: 1; stroke: #000000" x1="40" y1="148.5" x2="60" y2="148.5"/>
    <line style="fill: none; fill-opacity:0; stroke-width: 1; stroke: #000000" x1="40" y1="151.5" x2="60" y2="151.5"/>
    <text font-size="5.64444" style="fill: #000000;text-anchor:start;font-family:sans-serif;font-style:normal;font-weight:normal" x="64" y="152.617">
      <tspan x="64" y="152.617">Время фазы вышло?</tspan>
    </text>
  </g>
  <g>
    <line style="fill: none; fill-opacity:0; stroke-width: 1; stroke: #ffffff" x1="240.394" y1="252.326" x2="280.394" y2="252.326"/>
    <polygon style="fill: none; fill-opacity:0; stroke-width: 1; stroke: #000000" points="240.394,250.326 260.394,220.326 280.394,250.326 "/>
  </g>
  <line style="fill: none; fill-opacity:0; stroke-width: 1; stroke: #000000" x1="150" y1="130.5" x2="150" y2="148.5"/>
  <line style="fill: none; fill-opacity:0; stroke-width: 1; stroke: #000000" x1="150" y1="151.5" x2="150" y2="169"/>
  <line style="fill: none; fill-opacity:0; stroke-width: 1; stroke: #000000" x1="149.86" y1="65.6484" x2="150" y2="100.5"/>
  <line style="fill: none; fill-opacity:0; stroke-width: 1; stroke: #000000" x1="260.356" y1="65.6484" x2="260.594" y2="148.5"/>
  <g>
    <line style="fill: none; fill-opacity:0; stroke-width: 1; stroke: #000000" x1="113.028" y1="60" x2="297.189" y2="60"/>
    <line style="fill: none; fill-opacity:0; stroke-width: 1; stroke: #000000" x1="113.028" y1="65.6484" x2="297.189" y2="65.6484"/>
  </g>
  <line style="fill: none; fill-opacity:0; stroke-width: 1; stroke: #000000" x1="205.202" y1="40" x2="205.108" y2="60"/>
  <polyline style="fill: none; fill-opacity:0; stroke-width: 1; stroke: #000000" points="150,199 150,210.064 50,210.064 50,151.5 "/>
  <g>
    <polyline style="fill: none; fill-opacity:0; stroke-width: 1; stroke: #000000" points="50,148.5 50,83.0742 145.43,83.0742 "/>
    <polygon style="fill: #000000" points="145.43,85.0742 149.43,83.0742 145.43,81.0742 "/>
    <polygon style="fill: none; fill-opacity:0; stroke-width: 1; stroke: #000000" points="145.43,85.0742 149.43,83.0742 145.43,81.0742 "/>
  </g>
  <line style="fill: none; fill-opacity:0; stroke-width: 1; stroke: #000000" x1="260.594" y1="151.5" x2="260.394" y2="220.326"/>
  <g>
    <rect style="fill: none; fill-opacity:0; stroke-width: 1; stroke: #000000" x="120" y="169" width="60" height="30"/>
    <line style="fill: none; fill-opacity:0; stroke-width: 1; stroke: #000000" x1="120" y1="179" x2="130" y2="169"/>
    <text font-size="5.64436" style="fill: #000000;text-anchor:middle;font-family:sans-serif;font-style:normal;font-weight:normal" x="150" y="186.205">
      <tspan x="150" y="186.205">Работа мешалки</tspan>
    </text>
  </g>
  <g>
    <rect style="fill: none; fill-opacity:0; stroke-width: 1; stroke: #000000" x="120" y="100.5" width="60" height="30"/>
    <line style="fill: none; fill-opacity:0; stroke-width: 1; stroke: #000000" x1="120" y1="110.5" x2="130" y2="100.5"/>
    <text font-size="5.64436" style="fill: #000000;text-anchor:middle;font-family:sans-serif;font-style:normal;font-weight:normal" x="150" y="117.705">
      <tspan x="150" y="117.705">Простой мешалки</tspan>
    </text>
  </g>
</svg>
