<?xml version="1.0" encoding="UTF-8" standalone="no"?>
<!DOCTYPE svg PUBLIC "-//W3C//DTD SVG 1.1//EN" "http://www.w3.org/Graphics/SVG/1.1/DTD/svg11.dtd">
<!-- Создано Microsoft Visio, экспорт SVG mixing_procedure.svg Страница-1 -->
<svg xmlns="http://www.w3.org/2000/svg" xmlns:xlink="http://www.w3.org/1999/xlink" xmlns:ev="http://www.w3.org/2001/xml-events"
		xmlns:v="http://schemas.microsoft.com/visio/2003/SVGExtensions/" width="9.11759in" height="8.33578in"
		viewBox="0 0 656.467 600.176" xml:space="preserve" color-interpolation-filters="sRGB" class="st10">
	<v:documentProperties v:langID="1049">
		<v:userDefs>
			<v:ud v:nameU="msvSubprocessMaster" v:prompt="" v:val="VT4(Rectangle)"/>
			<v:ud v:nameU="msvNoAutoConnect" v:val="VT0(1):26"/>
		</v:userDefs>
	</v:documentProperties>

	<style type="text/css">
	<![CDATA[
		.st1 {fill:none}
		.st2 {stroke:#000000;stroke-linecap:round;stroke-linejoin:round;stroke-width:1.5}
		.st3 {stroke:#000000;stroke-linecap:round;stroke-linejoin:round;stroke-width:1.49999}
		.st4 {fill:none;stroke:#000000;stroke-width:1.5}
		.st5 {fill:#000000;font-family:Calibri;font-size:1.00001em}
		.st6 {font-size:1em}
		.st7 {fill:none;stroke:none;stroke-linecap:round;stroke-linejoin:round;stroke-width:0.75}
		.st8 {marker-end:url(#mrkr5-83);stroke:#000000;stroke-linecap:round;stroke-linejoin:round;stroke-width:1.5}
		.st9 {fill:#000000;fill-opacity:1;stroke:#000000;stroke-opacity:1;stroke-width:0.37313432835821}
		.st10 {fill:none;fill-rule:evenodd;font-size:12px;overflow:visible;stroke-linecap:square;stroke-miterlimit:3}
	]]>
	</style>

	<defs id="Markers">
		<g id="lend5">
			<path d="M 2 1 L 0 0 L 1.98117 -0.993387 C 1.67173 -0.364515 1.67301 0.372641 1.98465 1.00043 " style="stroke:none"/>
		</g>
		<marker id="mrkr5-83" class="st9" v:arrowType="5" v:arrowSize="2" v:setback="4.69" refX="-4.69" orient="auto"
				markerUnits="strokeWidth" overflow="visible">
			<use xlink:href="#lend5" transform="scale(-2.68,-2.68) "/>
		</marker>
	</defs>
	<g v:mID="0" v:index="1" v:groupContext="foregroundPage">
		<v:userDefs>
			<v:ud v:nameU="msvThemeOrder" v:val="VT0(0):26"/>
		</v:userDefs>
		<title>Страница-1</title>
		<v:pageProperties v:drawingScale="0.0393701" v:pageScale="0.0393701" v:drawingUnits="24" v:shadowOffsetX="8.50391"
				v:shadowOffsetY="-8.50391"/>
		<v:layer v:name="Соединительная линия" v:index="0"/>
		<g id="group39-1" transform="translate(297.936,-279.087)" v:mID="39" v:groupContext="group">
			<title>Лист.26</title>
			<g id="shape40-2" v:mID="40" v:groupContext="shape" v:layerMember="0" transform="translate(8.50733,0)">
				<title>Динамическая соединительная линия</title>
				<v:userDefs/>
				<path d="M0 556.24 L0 600.18 L0 556.24 Z" class="st1"/>
				<path d="M0 556.24 L0 600.18" class="st2"/>
			</g>
			<g id="shape41-5" v:mID="41" v:groupContext="shape" transform="translate(0,-28.3495)">
				<title>Лист.23</title>
				<path d="M0 600.18 L17.01 600.18 L0 600.18 Z" class="st1"/>
				<path d="M0 600.18 L17.01 600.18" class="st2"/>
			</g>
			<g id="shape42-8" v:mID="42" v:groupContext="shape" transform="translate(0,-19.8455)">
				<title>Лист.24</title>
				<path d="M0 600.18 L17.01 600.18 L0 600.18 Z" class="st1"/>
				<path d="M0 600.18 L17.01 600.18" class="st2"/>
			</g>
		</g>
		<g id="group45-11" transform="translate(344.359,-538.908)" v:mID="45" v:groupContext="group">
			<title>Лист.45</title>
			<g id="shape27-12" v:mID="27" v:groupContext="shape" transform="translate(556.07,890.576) rotate(123.69)">
				<title>Лист.77</title>
				<path d="M0 600.18 L51.1 600.18 L0 600.18 Z" class="st1"/>
				<path d="M0 600.18 L51.1 600.18" class="st3"/>
			</g>
			<g id="shape28-15" v:mID="28" v:groupContext="shape" transform="translate(498.127,222.874) rotate(56.0955)">
				<title>Лист.79</title>
				<path d="M0 600.18 L51.02 600.18 L0 600.18 Z" class="st1"/>
				<path d="M0 600.18 L51.02 600.18" class="st3"/>
			</g>
			<g id="shape29-18" v:mID="29" v:groupContext="shape" transform="translate(0.000207384,-42.517)">
				<title>Лист.80</title>
				<path d="M0 600.18 L56.69 600.18 L0 600.18 Z" class="st1"/>
				<path d="M0 600.18 L56.69 600.18" class="st3"/>
			</g>
		</g>
		<g id="group47-21" transform="translate(343.827,-18.75)" v:mID="47" v:groupContext="group">
			<title>Лист.47</title>
			<g id="shape31-22" v:mID="31" v:groupContext="shape" transform="translate(556.069,267.258) rotate(56.3099) scale(-1,1)">
				<title>Лист.82</title>
				<path d="M0 600.18 L51.1 600.18 L0 600.18 Z" class="st1"/>
				<path d="M0 600.18 L51.1 600.18" class="st3"/>
			</g>
			<g id="shape32-25" v:mID="32" v:groupContext="shape" transform="translate(-498.127,265.391) rotate(-56.0955)">
				<title>Лист.83</title>
				<path d="M0 600.18 L51.02 600.18 L0 600.18 Z" class="st1"/>
				<path d="M0 600.18 L51.02 600.18" class="st3"/>
			</g>
			<g id="shape33-28" v:mID="33" v:groupContext="shape" transform="translate(0.000207384,-0.000883632)">
				<title>Лист.84</title>
				<path d="M0 600.18 L56.69 600.18 L0 600.18 Z" class="st1"/>
				<path d="M0 600.18 L56.69 600.18" class="st3"/>
			</g>
		</g>
		<g id="shape48-31" v:mID="48" v:groupContext="shape" v:layerMember="0" transform="translate(299.354,-348.347)">
			<title>Динамическая соединительная линия.48</title>
			<path d="M7.08 600.18 L7.09 625.5" class="st2"/>
		</g>
		<g id="shape54-34" v:mID="54" v:groupContext="shape" v:layerMember="0" transform="translate(299.354,-167.375)">
			<title>Динамическая соединительная линия.54</title>
			<path d="M7.08 600.18 L7.09 625.5" class="st2"/>
		</g>
		<g id="shape55-37" v:mID="55" v:groupContext="shape" v:layerMember="0" transform="translate(313.682,-279.256)">
			<title>Динамическая соединительная линия.55</title>
			<path d="M-6.93 600.18 L-7.24 627.02" class="st2"/>
		</g>
		<g id="group58-40" transform="translate(249.745,-348.347)" v:mID="58" v:groupContext="group">
			<title>Лист.58</title>
			<g id="shape36-41" v:mID="36" v:groupContext="shape" transform="translate(0.00292802,0)">
				<title>Прямоугольник</title>
				<desc>Идентификатор</desc>
				<v:userDefs>
					<v:ud v:nameU="visVersion" v:val="VT0(15):26"/>
				</v:userDefs>
				<v:textBlock v:margins="rect(3.99999,3.99999,3.99999,3.99999)" v:tabSpace="42.5196"/>
				<v:textRect cx="56.6928" cy="557.657" width="113.4" height="85.0394"/>
				<rect x="0" y="515.137" width="113.386" height="85.0394" class="st4"/>
				<text x="9.62" y="554.06" class="st5" v:langID="1049"><v:paragraph v:horizAlign="1"/><v:tabList/>Ожидание работы <tspan
							x="33.32" dy="1.2em" class="st6">мешалки</tspan></text>			</g>
			<g id="shape37-45" v:mID="37" v:groupContext="shape" transform="translate(452.737,939.525) rotate(135)">
				<title>Лист.20</title>
				<path d="M0 600.18 L40.09 600.18 L0 600.18 Z" class="st1"/>
				<path d="M0 600.18 L40.09 600.18" class="st2"/>
			</g>
		</g>
		<g id="group59-48" transform="translate(249.748,-167.375)" v:mID="59" v:groupContext="group">
			<title>Лист.59</title>
			<g id="shape49-49" v:mID="49" v:groupContext="shape">
				<title>Прямоугольник.49</title>
				<desc>Идентификатор</desc>
				<v:userDefs>
					<v:ud v:nameU="visVersion" v:val="VT0(15):26"/>
				</v:userDefs>
				<v:textBlock v:margins="rect(3.99999,3.99999,3.99999,3.99999)" v:tabSpace="42.5196"/>
				<v:textRect cx="56.6928" cy="557.657" width="113.4" height="85.0394"/>
				<rect x="0" y="515.137" width="113.386" height="85.0394" class="st4"/>
				<text x="14.43" y="561.26" class="st5" v:langID="1049"><v:paragraph v:horizAlign="1"/><v:tabList/>Работа мешалки</text>			</g>
			<g id="shape57-52" v:mID="57" v:groupContext="shape" transform="translate(453.831,939.524) rotate(135)">
				<title>Лист.57</title>
				<path d="M0 600.18 L40.09 600.18 L0 600.18 Z" class="st1"/>
				<path d="M0 600.18 L40.09 600.18" class="st2"/>
			</g>
		</g>
		<g id="shape60-55" v:mID="60" v:groupContext="shape" transform="translate(313.178,-294.934)">
			<title>Лист.60</title>
			<desc>Время фазы превышает заданный параметр?</desc>
			<v:textBlock v:margins="rect(4,4,4,4)"/>
			<v:textRect cx="76" cy="590.176" width="152" height="20"/>
			<rect x="0" y="580.176" width="152" height="20" class="st7"/>
			<text x="15.15" y="586.58" class="st5" v:langID="1049"><v:paragraph v:horizAlign="1"/><v:tabList/>Время фазы превышает <tspan
						x="22.03" dy="1.2em" class="st6">заданный параметр</tspan><tspan class="st6" v:langID="1033">?</tspan></text>		</g>
		<g id="shape62-60" v:mID="62" v:groupContext="shape" transform="translate(18.375,-283.596)">
			<title>Лист.62</title>
			<desc>Время фазы превышает заданный параметр?</desc>
			<v:textBlock v:margins="rect(4,4,4,4)"/>
			<v:textRect cx="76" cy="590.176" width="152" height="20"/>
			<rect x="0" y="580.176" width="152" height="20" class="st7"/>
			<text x="15.15" y="586.58" class="st5" v:langID="1049"><v:paragraph v:horizAlign="1"/><v:tabList/>Время фазы превышает <tspan
						x="22.03" dy="1.2em" class="st6">заданный параметр</tspan><tspan class="st6" v:langID="1033">?</tspan></text>		</g>
		<g id="shape63-65" v:mID="63" v:groupContext="shape" v:layerMember="0" transform="translate(306.443,-142.056)">
			<title>Динамическая соединительная линия.63</title>
			<path d="M0 600.18 L-138.9 600.18 L-138.9 474.94" class="st2"/>
		</g>
		<g id="group64-68" transform="translate(159.034,-267.295)" v:mID="64" v:groupContext="group">
			<title>Лист.64</title>
			<g id="shape65-69" v:mID="65" v:groupContext="shape" v:layerMember="0" transform="translate(8.50733,0)">
				<title>Динамическая соединительная линия</title>
				<v:userDefs/>
				<path d="M0 556.24 L0 600.18 L0 556.24 Z" class="st1"/>
				<path d="M0 556.24 L0 600.18" class="st2"/>
			</g>
			<g id="shape66-72" v:mID="66" v:groupContext="shape" transform="translate(-6.99441E-015,-28.3495)">
				<title>Лист.23</title>
				<path d="M0 600.18 L17.01 600.18 L0 600.18 Z" class="st1"/>
				<path d="M0 600.18 L17.01 600.18" class="st2"/>
			</g>
			<g id="shape67-75" v:mID="67" v:groupContext="shape" transform="translate(-6.99441E-015,-19.8455)">
				<title>Лист.24</title>
				<path d="M0 600.18 L17.01 600.18 L0 600.18 Z" class="st1"/>
				<path d="M0 600.18 L17.01 600.18" class="st2"/>
			</g>
		</g>
		<g id="shape68-78" v:mID="68" v:groupContext="shape" v:layerMember="0" transform="translate(167.542,-311.235)">
			<title>Динамическая соединительная линия.68</title>
			<path d="M0 600.18 L0 466.81 L131.91 466.81" class="st8"/>
		</g>
		<g id="group69-84" transform="translate(259.32,-474.417)" v:mID="69" v:groupContext="group">
			<title>Лист.69</title>
			<g id="shape71-85" v:mID="71" v:groupContext="shape" transform="translate(0,-28.3495)">
				<title>Лист.23</title>
				<path d="M0 600.18 L226.77 600.18 L0 600.18 Z" class="st1"/>
				<path d="M0 600.18 L226.77 600.18" class="st2"/>
			</g>
			<g id="shape72-88" v:mID="72" v:groupContext="shape" transform="translate(0,-19.8455)">
				<title>Лист.24</title>
				<path d="M0 600.18 L226.77 600.18 L0 600.18 Z" class="st1"/>
				<path d="M0 600.18 L226.77 600.18" class="st2"/>
			</g>
		</g>
		<g id="shape73-91" v:mID="73" v:groupContext="shape" v:layerMember="0" transform="translate(299.351,-494.262)">
			<title>Динамическая соединительная линия.73</title>
			<path d="M7.09 600.18 L7.09 661.05" class="st2"/>
		</g>
		<g id="shape74-94" v:mID="74" v:groupContext="shape" v:layerMember="0" transform="translate(458.752,-494.262)">
			<title>Динамическая соединительная линия.74</title>
			<path d="M6.77 600.18 L7.41 809.23" class="st2"/>
		</g>
		<g id="shape75-97" v:mID="75" v:groupContext="shape" v:layerMember="0" transform="translate(379.859,-539.106)">
			<title>Динамическая соединительная линия.75</title>
			<path d="M-7.02 600.18 L-7.15 636.52" class="st2"/>
		</g>
		<g id="group76-100" transform="translate(457.652,-241.269)" v:mID="76" v:groupContext="group">
			<title>Лист.76</title>
			<g id="shape77-101" v:mID="77" v:groupContext="shape" v:layerMember="0" transform="translate(8.50733,0)">
				<title>Динамическая соединительная линия</title>
				<v:userDefs/>
				<path d="M0 556.24 L0 600.18 L0 556.24 Z" class="st1"/>
				<path d="M0 556.24 L0 600.18" class="st2"/>
			</g>
			<g id="shape78-104" v:mID="78" v:groupContext="shape" transform="translate(0,-28.3495)">
				<title>Лист.23</title>
				<path d="M0 600.18 L17.01 600.18 L0 600.18 Z" class="st1"/>
				<path d="M0 600.18 L17.01 600.18" class="st2"/>
			</g>
			<g id="shape79-107" v:mID="79" v:groupContext="shape" transform="translate(0,-19.8455)">
				<title>Лист.24</title>
				<path d="M0 600.18 L17.01 600.18 L0 600.18 Z" class="st1"/>
				<path d="M0 600.18 L17.01 600.18" class="st2"/>
			</g>
		</g>
		<g id="shape80-110" v:mID="80" v:groupContext="shape" v:layerMember="0" transform="translate(466.159,-241.269)">
			<title>Динамическая соединительная линия</title>
			<path d="M0 600.18 L0 756.08 L-93.93 756.08 L-93.93 780.26" class="st2"/>
		</g>
		<g id="shape81-113" v:mID="81" v:groupContext="shape" transform="translate(486.092,-255.442)">
			<title>Лист.81</title>
			<desc>Время операции превышает заданный параметр?</desc>
			<v:textBlock v:margins="rect(4,4,4,4)"/>
			<v:textRect cx="76" cy="590.176" width="152" height="20"/>
			<rect x="0" y="580.176" width="152" height="20" class="st7"/>
			<text x="33.31" y="579.38" class="st5" v:langID="1049"><v:paragraph v:horizAlign="1"/><v:tabList/>Время операции <tspan
						x="20.67" dy="1.2em" class="st6">превышает заданный </tspan><tspan x="48.68" dy="1.2em" class="st6">параметр</tspan><tspan
						class="st6" v:langID="1033">?</tspan></text>		</g>
	</g>
</svg>
