<?xml version="1.0" encoding="UTF-8" standalone="no"?>
<!DOCTYPE svg PUBLIC "-//W3C//DTD SVG 1.0//EN" "http://www.w3.org/TR/2001/PR-SVG-20010719/DTD/svg10.dtd">
<svg width="16cm" height="4cm" viewBox="11 7 307 72" xmlns="http://www.w3.org/2000/svg" xmlns:xlink="http://www.w3.org/1999/xlink">
  <g>
    <rect style="fill: none; fill-opacity:0; stroke-width: 1; stroke: #000000" x="12.4129" y="28.3308" width="60" height="30"/>
    <line style="fill: none; fill-opacity:0; stroke-width: 1; stroke: #000000" x1="12.4129" y1="38.3308" x2="22.4129" y2="28.3308"/>
    <line style="fill: none; fill-opacity:0; stroke-width: 1; stroke: #000000" x1="62.4129" y1="28.3308" x2="72.4129" y2="38.3308"/>
    <line style="fill: none; fill-opacity:0; stroke-width: 1; stroke: #000000" x1="12.4129" y1="48.3308" x2="22.4129" y2="58.3308"/>
    <line style="fill: none; fill-opacity:0; stroke-width: 1; stroke: #000000" x1="62.4129" y1="58.3308" x2="72.4129" y2="48.3308"/>
    <text font-size="5.64444" style="fill: #000000;text-anchor:middle;font-family:sans-serif;font-style:normal;font-weight:normal" x="42.4129" y="45.4474">
      <tspan x="42.4129" y="45.4474">Идентификатор</tspan>
    </text>
  </g>
  <g>
    <rect style="fill: none; fill-opacity:0; stroke-width: 1; stroke: #000000" x="92.4129" y="28.3308" width="60" height="30"/>
    <line style="fill: none; fill-opacity:0; stroke-width: 1; stroke: #000000" x1="92.4129" y1="38.3308" x2="102.413" y2="28.3308"/>
    <line style="fill: none; fill-opacity:0; stroke-width: 1; stroke: #000000" x1="142.413" y1="28.3308" x2="152.413" y2="38.3308"/>
    <line style="fill: none; fill-opacity:0; stroke-width: 1; stroke: #000000" x1="142.413" y1="58.3308" x2="152.413" y2="48.3308"/>
    <text font-size="5.64444" style="fill: #000000;text-anchor:middle;font-family:sans-serif;font-style:normal;font-weight:normal" x="122.413" y="45.4474">
      <tspan x="122.413" y="45.4474">Идентификатор</tspan>
    </text>
  </g>
  <g>
    <rect style="fill: none; fill-opacity:0; stroke-width: 1; stroke: #000000" x="172.413" y="28.3308" width="60" height="30"/>
    <line style="fill: none; fill-opacity:0; stroke-width: 1; stroke: #000000" x1="172.413" y1="38.3308" x2="182.413" y2="28.3308"/>
    <line style="fill: none; fill-opacity:0; stroke-width: 1; stroke: #000000" x1="222.413" y1="28.3308" x2="232.413" y2="38.3308"/>
    <text font-size="5.64444" style="fill: #000000;text-anchor:middle;font-family:sans-serif;font-style:normal;font-weight:normal" x="202.413" y="45.4474">
      <tspan x="202.413" y="45.4474">Идентификатор</tspan>
    </text>
  </g>
  <g>
    <rect style="fill: none; fill-opacity:0; stroke-width: 1; stroke: #000000" x="252.413" y="28.3308" width="60" height="30"/>
    <line style="fill: none; fill-opacity:0; stroke-width: 1; stroke: #000000" x1="252.413" y1="38.3308" x2="262.413" y2="28.3308"/>
    <text font-size="5.64444" style="fill: #000000;text-anchor:middle;font-family:sans-serif;font-style:normal;font-weight:normal" x="282.413" y="45.4474">
      <tspan x="282.413" y="45.4474">Идентификатор</tspan>
    </text>
  </g>
  <line style="fill: none; fill-opacity:0; stroke-width: 1; stroke: #000000" x1="42.4129" y1="8.33075" x2="42.4129" y2="28.3308"/>
  <line style="fill: none; fill-opacity:0; stroke-width: 1; stroke: #000000" x1="42.4129" y1="58.3308" x2="42.4129" y2="78.3308"/>
  <line style="fill: none; fill-opacity:0; stroke-width: 1; stroke: #000000" x1="122.413" y1="58.3308" x2="122.413" y2="78.3308"/>
  <line style="fill: none; fill-opacity:0; stroke-width: 1; stroke: #000000" x1="122.413" y1="8.33075" x2="122.413" y2="28.3308"/>
  <line style="fill: none; fill-opacity:0; stroke-width: 1; stroke: #000000" x1="202.413" y1="8.33075" x2="202.413" y2="28.3308"/>
  <line style="fill: none; fill-opacity:0; stroke-width: 1; stroke: #000000" x1="202.413" y1="58.3308" x2="202.413" y2="78.3308"/>
  <line style="fill: none; fill-opacity:0; stroke-width: 1; stroke: #000000" x1="282.413" y1="8.33075" x2="282.413" y2="27.8474"/>
  <line style="fill: none; fill-opacity:0; stroke-width: 1; stroke: #000000" x1="282.413" y1="58.3308" x2="282.413" y2="78.3308"/>
  <line style="fill: none; fill-opacity:0; stroke-width: 1; stroke: #ffffff" x1="317.413" y1="28.3308" x2="317.413" y2="58.3308"/>
</svg>
