<?xml version="1.0" encoding="UTF-8" standalone="no"?>
<!DOCTYPE svg PUBLIC "-//W3C//DTD SVG 1.0//EN" "http://www.w3.org/TR/2001/PR-SVG-20010719/DTD/svg10.dtd">
<svg width="12cm" height="9cm" viewBox="19 9 221 172" xmlns="http://www.w3.org/2000/svg" xmlns:xlink="http://www.w3.org/1999/xlink">
  <g>
    <rect style="fill: none; fill-opacity:0; stroke-width: 1; stroke: #000000" x="20" y="20" width="60" height="30"/>
    <line style="fill: none; fill-opacity:0; stroke-width: 1; stroke: #000000" x1="20" y1="30" x2="30" y2="20"/>
    <text font-size="5.64444" style="fill: #000000;text-anchor:middle;font-family:sans-serif;font-style:normal;font-weight:normal" x="50" y="37.1167">
      <tspan x="50" y="37.1167">Добавление А</tspan>
    </text>
  </g>
  <g>
    <rect style="fill: none; fill-opacity:0; stroke-width: 1; stroke: #000000" x="180" y="20" width="60" height="30"/>
    <line style="fill: none; fill-opacity:0; stroke-width: 1; stroke: #000000" x1="180" y1="30" x2="190" y2="20"/>
    <text font-size="5.64444" style="fill: #000000;text-anchor:middle;font-family:sans-serif;font-style:normal;font-weight:normal" x="210" y="37.1167">
      <tspan x="210" y="37.1167">Нагрев</tspan>
    </text>
  </g>
  <g>
    <polygon style="fill: none; fill-opacity:0; stroke-width: 1; stroke: #000000" points="80,28 100,28 100,43 80,43 "/>
    <text font-size="5.64444" style="fill: #000000;text-anchor:middle;font-family:sans-serif;font-style:normal;font-weight:normal" x="90" y="37.6167">
      <tspan x="90" y="37.6167">S01</tspan>
    </text>
  </g>
  <g>
    <polygon style="fill: none; fill-opacity:0; stroke-width: 1; stroke: #000000" points="160,28 180,28 180,43 160,43 "/>
    <text font-size="5.64444" style="fill: #000000;text-anchor:middle;font-family:sans-serif;font-style:normal;font-weight:normal" x="170" y="37.6167">
      <tspan x="170" y="37.6167">S01</tspan>
    </text>
  </g>
  <line style="fill: none; fill-opacity:0; stroke-width: 1; stroke-dasharray: 4; stroke: #000000" x1="100" y1="35.5" x2="160" y2="35.5"/>
  <line style="fill: none; fill-opacity:0; stroke-width: 1; stroke: #000000" x1="50" y1="20" x2="50" y2="10"/>
  <line style="fill: none; fill-opacity:0; stroke-width: 1; stroke: #000000" x1="50" y1="60" x2="50" y2="50"/>
  <line style="fill: none; fill-opacity:0; stroke-width: 1; stroke: #000000" x1="210" y1="60" x2="210" y2="50"/>
  <line style="fill: none; fill-opacity:0; stroke-width: 1; stroke: #000000" x1="210" y1="10" x2="210" y2="20"/>
  <g>
    <rect style="fill: none; fill-opacity:0; stroke-width: 1; stroke: #000000" x="20" y="80" width="60" height="30"/>
    <line style="fill: none; fill-opacity:0; stroke-width: 1; stroke: #000000" x1="20" y1="90" x2="30" y2="80"/>
    <text font-size="5.64444" style="fill: #000000;text-anchor:middle;font-family:sans-serif;font-style:normal;font-weight:normal" x="50" y="97.1167">
      <tspan x="50" y="97.1167">Подача в реактор</tspan>
    </text>
  </g>
  <g>
    <rect style="fill: none; fill-opacity:0; stroke-width: 1; stroke: #000000" x="180" y="80" width="60" height="30"/>
    <line style="fill: none; fill-opacity:0; stroke-width: 1; stroke: #000000" x1="180" y1="90" x2="190" y2="80"/>
    <text font-size="5.64444" style="fill: #000000;text-anchor:middle;font-family:sans-serif;font-style:normal;font-weight:normal" x="210" y="97.1167">
      <tspan x="210" y="97.1167">Прием с установки</tspan>
    </text>
  </g>
  <g>
    <polygon style="fill: none; fill-opacity:0; stroke-width: 1; stroke: #000000" points="80,88 100,88 100,103 80,103 "/>
    <text font-size="5.64444" style="fill: #000000;text-anchor:middle;font-family:sans-serif;font-style:normal;font-weight:normal" x="90" y="97.6167">
      <tspan x="90" y="97.6167"></tspan>
    </text>
  </g>
  <g>
    <polygon style="fill: none; fill-opacity:0; stroke-width: 1; stroke: #000000" points="160,88 180,88 180,103 160,103 "/>
    <text font-size="5.64444" style="fill: #000000;text-anchor:middle;font-family:sans-serif;font-style:normal;font-weight:normal" x="170" y="97.6167">
      <tspan x="170" y="97.6167"></tspan>
    </text>
  </g>
  <g>
    <line style="fill: none; fill-opacity:0; stroke-width: 1; stroke-dasharray: 4; stroke: #000000" x1="100" y1="95.5" x2="155.5" y2="95.5"/>
    <polygon style="fill: #000000" points="155.5,97.5 159.5,95.5 155.5,93.5 "/>
    <polygon style="fill: none; fill-opacity:0; stroke-width: 1; stroke: #000000" points="155.5,97.5 159.5,95.5 155.5,93.5 "/>
  </g>
  <line style="fill: none; fill-opacity:0; stroke-width: 1; stroke: #000000" x1="50" y1="80" x2="50" y2="70"/>
  <line style="fill: none; fill-opacity:0; stroke-width: 1; stroke: #000000" x1="50" y1="120" x2="50" y2="110"/>
  <line style="fill: none; fill-opacity:0; stroke-width: 1; stroke: #000000" x1="210" y1="120" x2="210" y2="110"/>
  <line style="fill: none; fill-opacity:0; stroke-width: 1; stroke: #000000" x1="210" y1="70" x2="210" y2="80"/>
  <g>
    <rect style="fill: none; fill-opacity:0; stroke-width: 1; stroke: #000000" x="20" y="140" width="60" height="30"/>
    <line style="fill: none; fill-opacity:0; stroke-width: 1; stroke: #000000" x1="20" y1="150" x2="30" y2="140"/>
    <text font-size="5.64444" style="fill: #000000;text-anchor:middle;font-family:sans-serif;font-style:normal;font-weight:normal" x="50" y="157.117">
      <tspan x="50" y="157.117">Добавление А</tspan>
    </text>
  </g>
  <g>
    <rect style="fill: none; fill-opacity:0; stroke-width: 1; stroke: #000000" x="180" y="140" width="60" height="30"/>
    <line style="fill: none; fill-opacity:0; stroke-width: 1; stroke: #000000" x1="180" y1="150" x2="190" y2="140"/>
    <text font-size="5.64444" style="fill: #000000;text-anchor:middle;font-family:sans-serif;font-style:normal;font-weight:normal" x="210" y="157.117">
      <tspan x="210" y="157.117">Нагрев</tspan>
    </text>
  </g>
  <g>
    <polygon style="fill: none; fill-opacity:0; stroke-width: 1; stroke: #000000" points="80,148 100,148 100,163 80,163 "/>
    <text font-size="5.64444" style="fill: #000000;text-anchor:middle;font-family:sans-serif;font-style:normal;font-weight:normal" x="90" y="157.617">
      <tspan x="90" y="157.617">TR2</tspan>
    </text>
  </g>
  <g>
    <polygon style="fill: none; fill-opacity:0; stroke-width: 1; stroke: #000000" points="160,148 180,148 180,163 160,163 "/>
    <text font-size="5.64444" style="fill: #000000;text-anchor:middle;font-family:sans-serif;font-style:normal;font-weight:normal" x="170" y="157.617">
      <tspan x="170" y="157.617">TR2</tspan>
    </text>
  </g>
  <line style="fill: none; fill-opacity:0; stroke-width: 1; stroke: #000000" x1="50" y1="140" x2="50" y2="130"/>
  <line style="fill: none; fill-opacity:0; stroke-width: 1; stroke: #000000" x1="50" y1="180" x2="50" y2="170"/>
  <line style="fill: none; fill-opacity:0; stroke-width: 1; stroke: #000000" x1="210" y1="180" x2="210" y2="170"/>
  <line style="fill: none; fill-opacity:0; stroke-width: 1; stroke: #000000" x1="210" y1="130" x2="210" y2="140"/>
</svg>
